PathFileType	4	(X/Y/Z)	 s04c0303.trc
DataRate	CameraRate	NumFrames	NumMarkers	Units	OrigDataRate	OrigDataStartFrame	OrigNumFrames
200	200	4	50	mm	200	1251	2000
Frame#	Time	racr			lacr			c7			jug			rlel			rdr			llel			ldr			s2			lic			ric			lasi			rasi			rpsi			lpsi			rgt			lgt			rth1			rth2			rth3			rth4			rlfc			rmfc			rsh1			rsh2			rsh3			rsh4			rlmal			rmmal			rcal			rtoe			rmt5			lth1			lth2			lth4			lth3			llfc			lmfc			lsh1			lsh2			lsh3			lsh4			llmal			lmmal			lcal			ltoe			lmt5			SBIKE			LBIKE			RBIKE			
		X1	Y1	Z1	X2	Y2	Z2	X3	Y3	Z3	X4	Y4	Z4	X5	Y5	Z5	X6	Y6	Z6	X7	Y7	Z7	X8	Y8	Z8	X9	Y9	Z9	X10	Y10	Z10	X11	Y11	Z11	X12	Y12	Z12	X13	Y13	Z13	X14	Y14	Z14	X15	Y15	Z15	X16	Y16	Z16	X17	Y17	Z17	X18	Y18	Z18	X19	Y19	Z19	X20	Y20	Z20	X21	Y21	Z21	X22	Y22	Z22	X23	Y23	Z23	X24	Y24	Z24	X25	Y25	Z25	X26	Y26	Z26	X27	Y27	Z27	X28	Y28	Z28	X29	Y29	Z29	X30	Y30	Z30	X31	Y31	Z31	X32	Y32	Z32	X33	Y33	Z33	X34	Y34	Z34	X35	Y35	Z35	X36	Y36	Z36	X37	Y37	Z37	X38	Y38	Z38	X39	Y39	Z39	X40	Y40	Z40	X41	Y41	Z41	X42	Y42	Z42	X43	Y43	Z43	X44	Y44	Z44	X45	Y45	Z45	X46	Y46	Z46	X47	Y47	Z47	X48	Y48	Z48	X49	Y49	Z49	X50	Y50	Z50	
1251	6.2550	866.739516	1314.711744	-126.958279	886.152875	1242.062920	-431.529474	892.162435	1355.880784	-283.384304	816.414316	1216.766964	-270.261549	645.573292	1153.782177	60.928912	709.434317	912.484198	-68.370942	630.486187	1145.613376	-574.871403	706.424941	924.243949	-458.106711	287.751852	1296.540415	-218.930582	400.927867	1268.618076	-400.403847	462.415369	1252.595315	-86.235899	434.352240	1214.857953	-367.175218	481.320791	1189.766432	-132.639161	339.834757	1325.692940	-186.605577	323.201964	1336.272438	-257.392679	400.665360	1203.304492	-61.758981	346.177884	1200.686184	-421.839458	439.856760	1039.519260	-58.904781	472.838011	957.848952	-68.570168	463.991087	872.787371	-70.725938	503.051869	964.088130	-90.160763	453.472961	724.611692	-90.498152	424.778084	716.187056	-202.589448	350.175785	644.012956	-65.417716	299.781271	569.780458	-83.512959	220.776122	535.715622	-91.168752	322.282838	549.905822	-107.302660	111.291115	420.194802	-101.121583	136.324241	416.478019	-186.088829	52.208532	456.852806	-142.550491	192.462723	184.069525	-159.167697	140.355971	228.760945	-101.388806	389.554788	1119.886190	-435.301819	459.200010	1069.784135	-448.464745	487.599357	1091.683231	-440.873148	494.473461	988.403149	-456.378064	579.656782	845.199873	-449.061033	615.736606	813.532487	-343.556637	528.852444	734.912799	-470.658743	495.954075	657.236044	-448.519149	426.492463	601.972404	-443.107653	520.378513	644.000523	-419.908244	332.534069	492.234897	-434.750546	333.859303	502.961472	-348.872865	249.326228	498.268228	-393.716325	527.690245	382.901695	-400.952334	448.390994	372.941384	-462.420935	-175.880407	933.325269	-280.768935	-3.409126	85.709700	-484.655328	-15.074869	80.804797	-84.139621	
1252	6.2600	865.770613	1317.137472	-125.551714	886.824758	1240.928576	-429.883643	892.389807	1356.265163	-281.783842	816.008376	1217.700091	-267.571738	646.546389	1153.450871	61.486380	708.088239	912.092277	-68.630571	630.765639	1145.758510	-573.096748	706.890439	924.000307	-457.323028	287.495446	1296.234243	-221.814414	401.938094	1265.797724	-402.209537	461.369015	1253.652041	-88.455235	435.129186	1211.706688	-367.898256	480.919550	1190.740648	-133.256628	339.173245	1325.318882	-189.307648	323.158681	1335.298671	-260.647210	400.412679	1204.256995	-64.121163	345.860336	1196.951844	-423.034058	443.022067	1041.102023	-60.875128	477.046550	959.934718	-70.073164	469.226429	874.911256	-71.747565	507.440944	966.741096	-90.890571	459.620098	726.795332	-90.545516	432.313455	718.135421	-203.156223	354.840718	648.257076	-66.324979	302.340820	575.214508	-85.212490	223.118542	542.926510	-92.433356	325.127659	554.705623	-108.034967	110.867757	430.373096	-102.756464	136.182848	426.018009	-187.510894	52.568038	467.832339	-144.663986	188.219473	192.476754	-158.850205	136.653361	238.611539	-101.622541	388.517012	1115.718084	-436.650559	457.036002	1064.027456	-448.796534	486.088246	1085.786483	-442.229505	491.345119	982.299064	-456.336882	573.033439	836.626939	-448.817463	609.478332	805.715439	-344.006408	523.028683	725.151401	-470.790256	492.243046	646.845209	-448.130359	424.458412	589.710983	-442.302082	517.219598	634.276819	-419.606071	333.041403	479.125573	-434.398684	334.275573	490.153810	-348.313451	249.725628	483.929790	-393.249674	530.327254	374.249667	-401.026961	451.149398	362.802828	-462.438290	-175.750046	933.283915	-280.655402	-3.403921	85.674104	-484.651445	-15.053199	80.771386	-84.139042	
1253	6.2650	864.604037	1319.909372	-123.812575	887.317368	1239.747027	-428.208057	892.470577	1356.338523	-279.036380	814.943444	1218.652018	-263.470636	647.457984	1153.083489	62.058588	707.497874	911.707503	-68.626412	631.327215	1145.937039	-571.521364	707.047923	923.728274	-456.656336	287.157852	1295.475704	-224.720640	403.033914	1262.696471	-404.022462	460.184804	1255.120360	-89.947843	436.138110	1208.457279	-368.545071	480.417537	1191.814302	-134.080140	338.333186	1324.767478	-191.309497	323.606982	1333.256557	-265.337024	400.334266	1205.626410	-65.770150	345.722417	1192.815742	-424.146073	445.461574	1042.588487	-62.309605	480.360509	961.811374	-71.700555	473.979089	876.727300	-72.501640	510.362814	968.910531	-92.102547	465.407688	728.765633	-90.711701	439.126547	720.120564	-203.722201	359.183610	652.498004	-67.157019	305.176145	580.553021	-86.083418	225.280058	550.143541	-93.702151	327.721988	559.412356	-108.689517	110.477856	440.646074	-104.152091	137.141631	435.283525	-189.007579	52.916019	478.697374	-146.729498	184.874091	201.551073	-158.022526	133.545375	248.692868	-101.556081	387.586401	1111.280754	-437.937211	455.390852	1058.408514	-449.400014	484.623478	1079.809271	-443.633970	488.243619	976.103315	-456.793217	567.006506	828.452603	-448.687681	603.730685	798.089919	-344.125435	517.867433	716.857392	-471.344995	488.881908	637.939090	-448.109581	422.499242	579.378931	-441.920483	514.601492	625.526931	-420.218714	333.425960	466.725505	-434.065456	334.278207	477.952541	-347.950193	250.067086	470.352341	-392.919209	532.483563	365.013108	-401.014633	453.424252	352.498082	-462.326233	-175.673736	933.235235	-280.499003	-3.380159	85.647670	-484.641605	-15.052049	80.683843	-84.133634	
1254	6.2700	863.702584	1322.240503	-121.936654	887.685676	1238.675486	-426.613627	892.761820	1356.701206	-277.515056	814.300647	1219.774125	-260.803764	648.404127	1152.727247	62.712501	707.358975	911.401270	-68.342588	631.845723	1145.745191	-569.755487	707.210623	923.416727	-455.960770	286.680078	1294.439003	-227.737880	404.174268	1259.302261	-406.101936	458.936847	1256.303130	-91.492165	437.289725	1205.150092	-369.491603	480.041118	1192.419605	-134.799610	337.426293	1324.327654	-193.930012	320.167795	1333.298338	-264.744862	400.403554	1206.762646	-67.239343	345.674999	1188.492848	-425.301859	447.497612	1043.904636	-63.423022	483.199050	963.476073	-72.204374	478.046609	878.402343	-72.972520	513.217290	970.345243	-94.277998	470.836956	730.710745	-90.881117	445.234792	722.117047	-204.134384	363.218499	656.864357	-68.018887	309.130704	586.620604	-85.591262	227.326359	557.471766	-94.783900	330.074580	564.296499	-109.230228	110.030427	451.069836	-105.488174	137.310944	444.815703	-190.082581	53.230807	489.394994	-149.007381	182.423808	211.157876	-157.151929	130.994117	259.025734	-101.439583	386.785870	1106.683795	-439.243194	453.669914	1052.757632	-451.013328	483.542845	1073.583650	-444.360208	485.458341	969.882415	-457.216671	561.650003	821.203284	-448.827289	598.487594	790.975213	-344.059351	513.311771	709.424117	-471.222574	485.878068	629.813559	-448.301657	420.463281	570.119830	-442.066391	512.133203	617.626605	-421.016183	333.765166	454.839903	-433.850069	334.815816	465.829292	-347.363076	250.535052	457.167179	-392.552024	534.046469	355.285893	-400.870603	455.173836	342.043624	-462.188519	-175.643797	933.193647	-280.366552	-3.360689	85.639071	-484.609216	-15.045463	80.633593	-84.096748	
